<?xml version="1.0" encoding="UTF-8"?>
<svg width="16px" height="16px" viewBox="0 0 16 16" version="1.1" xmlns="http://www.w3.org/2000/svg" xmlns:xlink="http://www.w3.org/1999/xlink">
    <title>删除 (1)</title>
    <g id="页面-1" stroke="none" stroke-width="1" fill="none" fill-rule="evenodd">
        <g id="主页---双侧栏展开" transform="translate(-269.000000, -112.000000)">
            <g id="编组-13" transform="translate(192.000000, 23.000000)">
                <g id="编组-6" transform="translate(33.000000, 85.000000)">
                    <g id="删除-(1)" transform="translate(44.000000, 4.000000)">
                        <path d="M3.6930126,5.50148898 L4.89003436,11.8921977 C5.02176403,12.51757 5.35395189,13 5.92668958,13 L10.0790378,13 C10.6460481,13 10.9839633,12.5116141 11.1099656,11.8921977 L12.3069874,5.50148898 L3.6930126,5.50148898 Z M10.2107675,3.76831447 C10.0160367,3.76831447 9.7583047,3.63132817 9.63802978,3.47051817 L9.51775487,3.29779631 C9.40320733,3.13103038 9.14547537,3 8.94501718,3 L7.06071019,3 C6.86597938,3 6.60824742,3.1369863 6.48797251,3.29779631 L6.36769759,3.47051817 C6.24742268,3.6372841 5.9954181,3.76831447 5.79495991,3.76831447 L3.36082474,3.76831447 C3.16609393,3.76831447 3,3.93508041 3,4.14353782 L3,4.35795116 C3,4.56045265 3.16036655,4.73317451 3.36082474,4.73317451 L12.6391753,4.73317451 C12.8339061,4.73317451 13,4.56640858 13,4.35795116 L13,4.14353782 C13,3.94103633 12.8396334,3.76831447 12.6391753,3.76831447 L10.2107675,3.76831447 Z" id="形状" fill="#B5B8BF" fill-rule="nonzero"></path>
                        <rect id="矩形备份-6" stroke="#979797" opacity="0" x="0" y="0" width="16" height="16"></rect>
                    </g>
                </g>
            </g>
        </g>
    </g>
</svg>