<?xml version="1.0" encoding="UTF-8"?>
<svg width="30px" height="30px" viewBox="0 0 30 30" version="1.1" xmlns="http://www.w3.org/2000/svg" xmlns:xlink="http://www.w3.org/1999/xlink">
    <title>编组 21</title>
    <g id="页面-1" stroke="none" stroke-width="1" fill="none" fill-rule="evenodd">
        <g id="主页---文档上传" transform="translate(-224.000000, -563.000000)">
            <g id="编组-16" transform="translate(207.000000, 500.000000)">
                <g id="编组-21" transform="translate(17.000000, 63.000000)">
                    <circle id="椭圆形" fill="#FFFFFF" cx="15" cy="15" r="15"></circle>
                    <g id="编组-19" transform="translate(9.000000, 9.000000)" stroke="#2242DF" stroke-linecap="round" stroke-linejoin="round">
                        <path d="M6,12 C9.3137085,12 12,9.3137085 12,6 C12,4.38257997 11.3600145,2.91463658 10.3194606,1.83558706 C9.22816737,0.703921056 7.69628847,0 6,0 C2.6862915,0 0,2.6862915 0,6 C0,6.98046555 0.235173948,7.90600328 0.652190322,8.72328166" id="椭圆形" stroke-width="2" transform="translate(6.000000, 6.000000) scale(-1, 1) rotate(-270.000000) translate(-6.000000, -6.000000) "></path>
                        <line x1="5.5" y1="4.5" x2="5.5" y2="6.5" id="直线-8" stroke-width="1.5"></line>
                        <line x1="5.5" y1="6.5" x2="7.5" y2="6.5" id="直线-9" stroke-width="1.5"></line>
                    </g>
                </g>
            </g>
        </g>
    </g>
</svg>