<?xml version="1.0" encoding="UTF-8"?>
<svg width="28px" height="28px" viewBox="0 0 28 28" version="1.1" xmlns="http://www.w3.org/2000/svg" xmlns:xlink="http://www.w3.org/1999/xlink">
    <title>勾</title>
    <g id="页面-1" stroke="none" stroke-width="1" fill="none" fill-rule="evenodd">
        <g id="注册成功" transform="translate(-620.000000, -206.000000)" fill="#37D792" fill-rule="nonzero">
            <g id="勾" transform="translate(620.000000, 206.000000)">
                <path d="M14,0 C6.28034102,0 0,6.27955372 0,13.998245 C0,21.7204463 6.28034102,28 14,28 C21.719659,28 28,21.7204463 28,13.998245 C28,6.28306381 21.719659,0 14,0 Z M12.1183551,21.9626426 C11.9674022,22.2013288 11.616349,22.1978187 11.4759278,21.9521123 C10.5772317,20.3866115 7.74774323,15.9989971 3.56318957,14.6792027 L5.40972919,13.4787514 C7.17552658,12.3309515 9.555667,12.8399148 10.6579739,14.6335715 C11.4548646,15.9287953 11.7848546,17.2169989 11.7848546,17.2169989 C11.7848546,17.2169989 16.0255767,7.66954996 21.9197593,5.87940328 C21.9197593,5.87940328 20.0802407,10.0809828 22.7657974,13.1137019 C22.7587763,13.1137019 16.6434303,14.8160963 12.1183551,21.9626426 L12.1183551,21.9626426 Z" id="形状"></path>
            </g>
        </g>
    </g>
</svg>