<?xml version="1.0" encoding="UTF-8"?>
<svg width="42px" height="42px" viewBox="0 0 42 42" version="1.1" xmlns="http://www.w3.org/2000/svg" xmlns:xlink="http://www.w3.org/1999/xlink">
    <title>pc3</title>
    <g id="页面-1" stroke="none" stroke-width="1" fill="none" fill-rule="evenodd">
        <g id="扫码" transform="translate(-873.000000, -129.000000)" fill="#232426" fill-rule="nonzero">
            <g id="pc3" transform="translate(873.000000, 129.000000)">
                <path d="M30.4498509,38.8489721 L35.7009731,38.8500057 C36.4737662,38.8500057 37.2759595,39.6375474 37.2759595,40.4250316 C37.2759595,41.1442986 36.5871758,41.9055409 35.8416585,41.9916164 L35.7009731,42 L33.5998811,41.9989664 L30.4498509,38.8489721 Z M2.94478166,0 L39.0568059,0 L39.195424,0.0083836003 L39.4285596,0.0357164342 L39.625921,0.0693082573 C40.4690567,0.237267373 41.9138661,0.810625243 41.9968418,2.75625215 L42,3.00615235 L41.9989664,29.182681 L41.9852998,29.379064 L41.9642832,29.5669485 C41.9537748,29.6362567 41.9432665,29.7118814 41.9275327,29.7916405 L41.8750485,30.0457899 C41.6419128,31.0222496 40.9804047,32.4292589 39.0998154,32.5426672 L38.8510034,32.5500172 L26.7443721,32.5500172 L26.7443721,32.5259 L26.382093,32.5259 L26.3359253,34.7350935 L21.0007938,29.400023 L38.8510034,29.400023 L38.8510034,3.14999426 L3.15058417,3.14999426 L3.15058417,11.5500172 L0.000553942458,8.40002297 L0.000553942458,2.98197772 C-0.0320046579,0.936608935 1.37812153,0.29400023 2.26748238,0.0923918691 L2.47753417,0.0504164456 L2.73788812,0.0147000115 L2.94478166,0 Z M32.5509429,7.35000574 L32.5509429,24.1499943 L15.7507051,24.1499943 L8.40061542,16.7999885 L8.40061542,7.35000574 L32.5509429,7.35000574 L32.5509429,7.35000574 Z" id="形状"></path>
            </g>
        </g>
    </g>
</svg>