<?xml version="1.0" encoding="UTF-8"?>
<svg width="43px" height="43px" viewBox="0 0 43 43" version="1.1" xmlns="http://www.w3.org/2000/svg" xmlns:xlink="http://www.w3.org/1999/xlink">
    <title>二维码</title>
    <defs>
        <polygon id="path-1" points="0 0 43 0 43 43"></polygon>
    </defs>
    <g id="页面-1" stroke="none" stroke-width="1" fill="none" fill-rule="evenodd">
        <g id="用户登录" transform="translate(-869.000000, -131.000000)">
            <g id="形状" transform="translate(869.000000, 131.000000)">
                <mask id="mask-2" fill="white">
                    <use xlink:href="#path-1"></use>
                </mask>
                <g id="蒙版"></g>
                <path d="M0,20.1969697 L20.265861,20.1969697 L20.265861,0 L0,0 L0,20.1969697 Z M5.06646528,5.0818182 L15.1993958,5.0818182 L15.1993958,15.2454545 L5.06646528,15.2454545 L5.06646528,5.0818182 Z M22.734139,0 L22.734139,20.3272727 L43,20.3272727 L43,0 L22.734139,0 Z M37.9335348,15.1151515 L27.8006042,15.1151515 L27.8006042,5.0818182 L37.9335348,5.0818182 L37.9335348,15.1151515 Z M7.66465258,12.6393939 L12.7311179,12.6393939 L12.7311179,7.5575758 L7.66465258,7.5575758 L7.66465258,12.6393939 L7.66465258,12.6393939 Z M0,43 L20.265861,43 L20.265861,22.8030303 L0,22.8030303 L0,43 Z M5.06646528,27.8848485 L15.1993958,27.8848485 L15.1993958,38.0484849 L5.06646528,38.0484849 L5.06646528,27.8848485 Z M35.4652568,7.5575758 L30.3987915,7.5575758 L30.3987915,12.6393939 L35.4652568,12.6393939 L35.4652568,7.5575758 Z M22.734139,43 L27.8006042,43 L27.8006042,37.9181818 L22.734139,37.9181818 L22.734139,43 Z M27.8006042,27.8848485 L27.8006042,38.0484849 L32.8670695,38.0484849 L32.8670695,27.8848485 L27.8006042,27.8848485 Z M37.9335348,37.9181818 L32.8670695,37.9181818 L32.8670695,43 L43,43 L43,32.8363636 L37.9335348,32.8363636 L37.9335348,37.9181818 L37.9335348,37.9181818 Z M37.9335348,27.8848485 L43,27.8848485 L43,22.8030303 L37.9335348,22.8030303 L37.9335348,27.8848485 Z M22.734139,22.8030303 L22.734139,27.8848485 L27.8006042,27.8848485 L27.8006042,22.8030303 L22.734139,22.8030303 Z M7.66465258,35.4424242 L12.7311179,35.4424242 L12.7311179,30.3606061 L7.66465258,30.3606061 L7.66465258,35.4424242 L7.66465258,35.4424242 Z" fill="#232426" fill-rule="nonzero" mask="url(#mask-2)"></path>
            </g>
        </g>
    </g>
</svg>