<?xml version="1.0" encoding="UTF-8"?>
<svg width="16px" height="14px" viewBox="0 0 16 14" version="1.1" xmlns="http://www.w3.org/2000/svg" xmlns:xlink="http://www.w3.org/1999/xlink">
    <title>椭圆形</title>
    <defs>
        <path d="M8,13.1677882 C12.418278,13.1677882 16,10.2200784 16,6.58389409 C16,2.94770979 12.418278,0 8,0 C3.581722,0 0,2.94770979 0,6.58389409 C0,8.50495025 0.999724234,10.2338406 2.5943628,11.4374118 C2.69245448,11.5114476 2.68001671,12.0763836 2.48369157,12.4893412 C2.16139991,13.1672616 1.58195821,13.8096846 1.9467481,13.9666798 C2.24992758,14.0971596 2.9816974,13.8287527 3.54948957,13.4347737 C4.08103201,13.0659476 4.45472226,12.5714878 4.60099566,12.6346371 C5.71016137,13.1134874 6.66059495,13.1677882 8,13.1677882 Z" id="path-1"></path>
    </defs>
    <g id="页面-1" stroke="none" stroke-width="1" fill="none" fill-rule="evenodd">
        <g id="主页---双侧栏展开" transform="translate(-24.000000, -190.000000)">
            <g id="编组" transform="translate(9.000000, 56.000000)">
                <g id="编组-9" transform="translate(15.000000, 132.000000)">
                    <g id="椭圆形" transform="translate(0.000000, 2.000000)">
                        <mask id="mask-2" fill="white">
                            <use xlink:href="#path-1"></use>
                        </mask>
                        <use id="蒙版" fill="#2242DF" xlink:href="#path-1"></use>
                    </g>
                </g>
            </g>
        </g>
    </g>
</svg>