<?xml version="1.0" encoding="UTF-8"?>
<svg width="16px" height="16px" viewBox="0 0 16 16" version="1.1" xmlns="http://www.w3.org/2000/svg" xmlns:xlink="http://www.w3.org/1999/xlink">
    <title>pdf (1)备份</title>
    <g id="页面-1" stroke="none" stroke-width="1" fill="none" fill-rule="evenodd">
        <g id="主页---文档上传" transform="translate(-257.000000, -683.000000)" fill="#FFFFFF" fill-rule="nonzero">
            <g id="编组-16" transform="translate(207.000000, 500.000000)">
                <g id="编组-15" transform="translate(17.122680, 107.000000)">
                    <g id="编组-23" transform="translate(13.877320, 51.000000)">
                        <g id="pdf-(1)备份" transform="translate(19.000000, 25.000000)">
                            <path d="M13.7744445,11.9455081 C12.5747348,11.8563984 11.4194588,11.4108499 10.4863513,10.6088624 C8.66456991,11.0098561 6.93165592,11.5890693 5.19874194,12.301947 C3.82129749,14.752464 2.53272043,16 1.42187813,16 C1.19970968,16 0.933107523,15.9554452 0.755372768,15.8217806 C0.266602156,15.5990063 0,15.1089029 0,14.6187995 C0,14.2178058 0.0888673854,13.1039344 4.31006811,11.2771853 C5.28760933,9.49499103 6.04298208,7.66824194 6.66505378,5.75238314 C6.13184948,4.68306659 4.97657349,2.0543301 5.77637994,0.717684424 C6.04298208,0.227581007 6.57618639,-0.039748134 7.15382439,0.00480671492 C7.5981613,0.00480671492 8.04249823,0.227580991 8.30910037,0.584019845 C8.88673837,1.38600725 8.84230467,3.07909178 8.08693191,5.57416371 C8.79787098,6.91080939 9.7309785,8.1137905 10.8418208,9.13855219 C11.7749283,8.96033277 12.7080359,8.8266682 13.6411434,8.82666819 C15.7295269,8.87122304 16.0405627,9.85142987 15.9961291,10.430643 C15.9961291,11.9455081 14.5298172,11.9455081 13.7744445,11.9455081 L13.7744445,11.9455081 Z M1.33301075,14.7079092 L1.46631184,14.6633543 C2.08838352,14.4405801 2.57715413,13.9950315 2.93262366,13.4158184 C2.26611827,13.6831475 1.73291398,14.128696 1.33301075,14.7079092 Z M7.24269176,1.3414524 L7.10939069,1.3414524 C7.06495701,1.3414524 6.97608962,1.3414524 6.93165592,1.38600725 C6.75392115,2.14343981 6.88722223,2.94542722 7.19825808,3.65830491 C7.46486023,2.90087235 7.46486023,2.09888495 7.24269176,1.3414524 L7.24269176,1.3414524 Z M7.55372762,7.80190651 L7.50929392,7.89101622 L7.46486023,7.84646137 C7.06495701,8.87122305 6.62062009,9.89598474 6.13184947,10.8761916 L6.22071685,10.8316367 L6.22071685,10.9207464 C7.19825808,10.5643076 8.26466667,10.2524236 9.24220789,10.0296493 L9.19777421,9.98509445 L9.33107528,9.98509445 C8.6645699,9.31677161 8.04249821,8.55933906 7.55372762,7.80190651 L7.55372762,7.80190651 Z M13.5967097,10.1633139 C13.1968065,10.1633139 12.8413369,10.1633139 12.4414337,10.2524236 C12.8857706,10.4751979 13.3301075,10.5643076 13.7744445,10.6088624 C14.0854803,10.6534173 14.3965162,10.6088624 14.6631183,10.5197527 C14.6631183,10.3860882 14.4853835,10.1633139 13.5967097,10.1633139 Z" id="形状"></path>
                        </g>
                    </g>
                </g>
            </g>
        </g>
    </g>
</svg>