<?xml version="1.0" encoding="UTF-8"?>
<svg width="15px" height="15px" viewBox="0 0 15 15" version="1.1" xmlns="http://www.w3.org/2000/svg" xmlns:xlink="http://www.w3.org/1999/xlink">
    <title>发送、导航-m</title>
    <g id="页面-1" stroke="none" stroke-width="1" fill="none" fill-rule="evenodd">
        <g id="主页---常规状态备份" transform="translate(-1136.000000, -699.000000)" fill="#D2DDF0" fill-rule="nonzero">
            <g id="编组-16" transform="translate(307.000000, 623.000000)">
                <g id="编组-15" transform="translate(16.000000, 57.000000)">
                    <g id="发送、导航-m" transform="translate(813.000000, 19.000000)">
                        <path d="M14.1062371,0 C13.9936947,0 13.8886552,0.0225 13.7836156,0.06 L0.578644262,5.16 C0.113469134,5.34 -0.11911843,5.8575 0.0609493611,6.3225 C0.150983257,6.5475 0.323548224,6.7275 0.541130139,6.825 L5.87563846,9.12 L8.17900563,14.46 C8.32906212,14.7975 8.65918641,15 9.00431634,15 C9.12436154,15 9.24440673,14.9775 9.3569491,14.925 C9.58203384,14.8275 9.75459881,14.6475 9.8446327,14.4225 L14.9390506,1.2225 C15.1191184,0.7575 14.8865309,0.24 14.4213557,0.06 C14.323819,0.0225 14.2187795,0 14.1062371,0 Z" id="路径"></path>
                    </g>
                </g>
            </g>
        </g>
    </g>
</svg>