<?xml version="1.0" encoding="UTF-8"?>
<svg width="16px" height="16px" viewBox="0 0 16 16" version="1.1" xmlns="http://www.w3.org/2000/svg" xmlns:xlink="http://www.w3.org/1999/xlink">
    <title>分享备份</title>
    <g id="页面-1" stroke="none" stroke-width="1" fill="none" fill-rule="evenodd">
        <g id="主页---双侧栏展开" transform="translate(-229.000000, -112.000000)">
            <g id="编组-13" transform="translate(192.000000, 23.000000)">
                <g id="编组-6" transform="translate(33.000000, 85.000000)">
                    <g id="分享备份" transform="translate(4.000000, 4.000000)">
                        <path d="M11.1250141,9.24745943 C10.5117344,9.24745943 9.96725517,9.54214207 9.62516042,9.99770192 L6.67851696,8.51833599 C6.72508707,8.35471959 6.75001926,8.18199627 6.75001926,8.0034151 C6.75001926,7.80780587 6.72007456,7.61922842 6.66456963,7.44193978 L9.60007418,5.96813524 C9.9402848,6.44307103 10.4964835,6.75255243 11.1250022,6.75255243 C12.1605413,6.75255243 13,5.91253317 13,4.87627622 C13,3.84003112 12.1605413,3 11.1250022,3 C10.0894513,3 9.25000444,3.84003112 9.25000444,4.87627622 C9.25000444,4.94796956 9.25417561,5.01867869 9.26198469,5.08829689 L6.16590215,6.64270011 C5.82970865,6.32321057 5.37524129,6.12712703 4.87499778,6.12712703 C3.83945874,6.12712703 3,6.96714628 3,8.00340324 C3,9.0396602 3.83944689,9.87967946 4.87499778,9.87967946 C5.39345459,9.87967946 5.86273432,9.66910546 6.20215099,9.32876959 L9.26743565,10.8676863 C9.25601234,10.9514273 9.24996889,11.0368522 9.24996889,11.1237238 C9.24996889,12.1599807 10.0894158,13 11.1249667,13 C12.1605176,13 13,12.1599807 13,11.1237238 C13,10.0874905 12.160565,9.24745943 11.1250141,9.24745943 L11.1250141,9.24745943 Z" id="路径" fill="#B5B8BF" fill-rule="nonzero"></path>
                        <rect id="矩形备份-8" stroke="#979797" opacity="0" x="0" y="0" width="16" height="16"></rect>
                    </g>
                </g>
            </g>
        </g>
    </g>
</svg>