<?xml version="1.0" encoding="UTF-8"?>
<svg width="24px" height="24px" viewBox="0 0 24 24" version="1.1" xmlns="http://www.w3.org/2000/svg" xmlns:xlink="http://www.w3.org/1999/xlink">
    <title>编组 3备份</title>
    <g id="页面-1" stroke="none" stroke-width="1" fill="none" fill-rule="evenodd">
        <g id="主页---对话模式---用户直接发起对话" transform="translate(-1148.000000, -403.000000)">
            <g id="编组-9" transform="translate(305.000000, 114.000000)">
                <g id="编组-3备份" transform="translate(855.000000, 301.000000) scale(1, -1) translate(-855.000000, -301.000000) translate(843.000000, 289.000000)">
                    <path d="M9,15.9691309 L9,8.38427015 L9,8.38427015 L12.3501959,5.4518171 C12.7657691,5.08806258 13.3975391,5.13006992 13.7612936,5.54564313 C13.92087,5.72795199 14.0088317,5.96199577 14.0088317,6.20427896 L14.0088317,8.38427015 L14.0088317,8.38427015 C17.3362772,8.1064481 19,9.70392489 19,13.1767005 C19,16.6494761 17.1002972,18.2469529 13.3008915,17.9691309 L11,17.9691309 C9.8954305,17.9691309 9,17.0737004 9,15.9691309 Z" id="路径-12" stroke="#B5B8BF" stroke-width="2" stroke-linejoin="round"></path>
                    <rect id="矩形备份-10" stroke="#979797" opacity="0" x="0" y="0" width="24" height="24"></rect>
                    <path d="M9,16 L7,16 C6.44771525,16 6,15.5522847 6,15 L6,10 C6,9.44771525 6.44771525,9 7,9 L9,9 L9,9 L9,16 Z" id="路径-3" stroke="#B5B8BF" stroke-width="2" stroke-linejoin="round"></path>
                </g>
            </g>
        </g>
    </g>
</svg>