<?xml version="1.0" encoding="UTF-8"?>
<svg width="37px" height="36px" viewBox="0 0 37 36" version="1.1" xmlns="http://www.w3.org/2000/svg" xmlns:xlink="http://www.w3.org/1999/xlink">
    <title>位图</title>
    <defs>
        <circle id="path-1" cx="18" cy="18" r="18"></circle>
        <path d="M3.98273435,2.64758499 L0.782322824,2.64758499 C0.355601287,2.64758499 0,3.00536675 0,3.43470483 L0,19.2128801 C0,19.6422182 0.355601287,20 0.782322824,20 L3.98273435,20 C4.40945589,20 4.76505715,19.6422182 4.76505715,19.2128801 L4.76505715,3.43470483 C4.76505715,3.00536673 4.40945586,2.64758499 3.98273435,2.64758499 Z M3.09373114,5.86762076 L1.67132601,5.86762076 C1.28016461,5.86762076 0.960123457,5.54561719 0.960123457,5.15205724 C0.960123457,4.7584973 1.28016461,4.43649374 1.67132601,4.43649374 L3.09373114,4.43649374 C3.48489254,4.43649374 3.80493369,4.75849732 3.80493369,5.15205724 C3.80493369,5.54561716 3.48489254,5.86762076 3.09373114,5.86762076 Z M10.3479973,0 L7.14758574,0 C6.7208642,0 6.36526291,0.35778176 6.36526291,0.787119864 L6.36526291,19.2128801 C6.36526291,19.6422182 6.7208642,20 7.14758574,20 L10.3479973,20 C10.7747188,20 11.1303201,19.6422182 11.1303201,19.2128801 L11.1303201,0.787119864 C11.1658802,0.35778176 10.8102789,0 10.3479973,0 Z M9.49455419,3.25581396 L8.07214906,3.25581396 C7.68098766,3.25581396 7.36094651,2.93381038 7.36094651,2.54025046 C7.36094651,2.14669054 7.68098766,1.82468694 8.07214906,1.82468694 L9.49455419,1.82468694 C9.88571559,1.82468694 10.2057567,2.14669052 10.2057567,2.54025046 C10.2057567,2.9338104 9.88571559,3.25581396 9.49455419,3.25581396 Z M18.9891084,18.3899821 L16.0020576,2.8980322 C15.8953772,2.50447228 15.5753361,2.25402504 15.1841747,2.25402504 L15.0419342,2.25402504 L11.9126429,2.86225404 C11.4859214,2.93381038 11.2014403,3.36314849 11.2725606,3.79248659 L14.2951715,19.3202147 C14.3662917,19.7137746 14.6863329,19.9642218 15.0774943,19.9642218 L15.2197348,19.9642218 L18.3490261,19.3559928 C18.7757476,19.2486583 19.0602286,18.8193202 18.9891084,18.3899821 L18.9891084,18.3899821 Z M14.8996936,5.33094813 L13.4772885,5.61717353 L13.335048,5.61717353 C13.0150069,5.61717353 12.6949657,5.3667263 12.6238455,5.04472272 C12.5527252,4.6511628 12.8016461,4.25760285 13.1928075,4.18604651 L14.6152126,3.89982111 C15.006374,3.82826477 15.3975355,4.07871198 15.4686557,4.47227193 C15.539776,4.86583185 15.2908551,5.25939179 14.8996936,5.33094813 L14.8996936,5.33094813 Z" id="path-3"></path>
        <linearGradient x1="50%" y1="0%" x2="50%" y2="123.299599%" id="linearGradient-5">
            <stop stop-color="#FFFFFF" offset="0%"></stop>
            <stop stop-color="#212423" stop-opacity="0" offset="100%"></stop>
        </linearGradient>
    </defs>
    <g id="页面-1" stroke="none" stroke-width="1" fill="none" fill-rule="evenodd">
        <g id="主页---对话模式---新用户欢迎首次" transform="translate(-619.000000, -186.000000)">
            <g id="位图备份-2" transform="translate(600.780439, 169.000000)">
                <g id="编组-8" transform="translate(19.000000, 17.000000)">
                    <mask id="mask-2" fill="white">
                        <use xlink:href="#path-1"></use>
                    </mask>
                    <use id="蒙版" fill="#FAFAFA" xlink:href="#path-1"></use>
                    <g id="知识库07备份" mask="url(#mask-2)">
                        <g transform="translate(9.219561, 8.000000)" id="矩形">
                            <mask id="mask-4" fill="white">
                                <use xlink:href="#path-3"></use>
                            </mask>
                            <use id="蒙版" fill="#232426" fill-rule="nonzero" xlink:href="#path-3"></use>
                            <rect fill="url(#linearGradient-5)" opacity="0.763649164" mask="url(#mask-4)" x="0" y="11" width="19" height="11"></rect>
                        </g>
                    </g>
                </g>
            </g>
        </g>
    </g>
</svg>