<?xml version="1.0" encoding="UTF-8"?>
<svg width="18px" height="18px" viewBox="0 0 18 18" version="1.1" xmlns="http://www.w3.org/2000/svg" xmlns:xlink="http://www.w3.org/1999/xlink">
    <title>编组 17</title>
    <g id="页面-1" stroke="none" stroke-width="1" fill="none" fill-rule="evenodd">
        <g id="主页---知识社区详情" transform="translate(-830.000000, -111.000000)">
            <g id="编组-15" transform="translate(234.000000, 73.000000)">
                <g id="编组-18" transform="translate(544.000000, 37.000000)">
                    <g id="编组-17" transform="translate(52.000000, 1.000000)">
                        <rect id="矩形备份-5" fill="#D8D8D8" opacity="0" x="0" y="0" width="18" height="18"></rect>
                        <path d="M7.52685311,14.7059902 L6.2958053,15.0147651 C5.27724817,15.2702425 4.24443912,14.6516441 3.98896173,13.633087 C3.96159797,13.523991 3.94396838,13.4126822 3.93628035,13.3004699 L3.84952805,12.0342571 C3.80450671,11.3771381 3.59791204,10.7413051 3.24809019,10.1832217 L2.57401311,9.1078424 C2.01628821,8.21808386 2.28545466,7.04466668 3.1752132,6.48694178 C3.27051377,6.42720478 3.37092693,6.37604172 3.47527145,6.33405446 L4.65270338,5.86026687 C5.26374835,5.61438808 5.80462023,5.22142167 6.22728812,4.71626409 L7.04173338,3.74286819 C7.71559757,2.93748978 8.91476063,2.83087643 9.72013904,3.50474062 C9.8064018,3.5769171 9.88609013,3.65660543 9.95826662,3.74286819 L10.7727119,4.71626409 C11.1953798,5.22142167 11.7362516,5.61438808 12.3472966,5.86026687 L13.5247286,6.33405446 C14.4989244,6.72606177 14.9708815,7.83358828 14.5788742,8.80778415 C14.5368869,8.91212867 14.4857239,9.01254183 14.4259869,9.1078424 L13.7519098,10.1832217 C13.402088,10.7413051 13.1954933,11.3771381 13.150472,12.0342571 L13.0637196,13.3004699 C12.9919416,14.3481221 12.0844641,15.1392245 11.0368118,15.0674465 C10.9245995,15.0597584 10.8132907,15.0421288 10.7041947,15.0147651 L9.47314689,14.7059902 C8.8342772,14.5457471 8.1657228,14.5457471 7.52685311,14.7059902 Z" id="星形备份" stroke="#B5B8BF" stroke-width="2"></path>
                    </g>
                </g>
            </g>
        </g>
    </g>
</svg>