<?xml version="1.0" encoding="UTF-8"?>
<svg width="17px" height="18px" viewBox="0 0 17 18" version="1.1" xmlns="http://www.w3.org/2000/svg" xmlns:xlink="http://www.w3.org/1999/xlink">
    <title>知识库07</title>
    <g id="页面-1" stroke="none" stroke-width="1" fill="none" fill-rule="evenodd">
        <g id="主页---双侧栏展开" transform="translate(-25.000000, -115.000000)" fill="#fff" fill-rule="nonzero">
            <g id="编组" transform="translate(9.000000, 56.000000)">
                <g id="编组-5备份" transform="translate(9.000000, 53.960000)">
                    <g id="知识库07" transform="translate(7.000000, 5.040000)">
                        <path d="M3.56349915,2.38282649 L0.699973053,2.38282649 C0.318169573,2.38282649 0,2.70483007 0,3.09123435 L0,17.2915921 C0,17.6779964 0.318169573,18 0.699973053,18 L3.56349915,18 C3.94530263,18 4.26347219,17.6779964 4.26347219,17.2915921 L4.26347219,3.09123435 C4.26347219,2.70483005 3.94530262,2.38282649 3.56349915,2.38282649 Z M2.76807523,5.28085869 L1.49539696,5.28085869 C1.14541044,5.28085869 0.85905783,4.99105547 0.85905783,4.63685152 C0.85905783,4.28264757 1.14541044,3.99284437 1.49539696,3.99284437 L2.76807523,3.99284437 C3.11806175,3.99284437 3.40441436,4.28264759 3.40441436,4.63685152 C3.40441436,4.99105545 3.11806175,5.28085869 2.76807523,5.28085869 Z M9.25873439,0 L6.39520829,0 C6.01340481,0 5.69523524,0.322003584 5.69523524,0.708407877 L5.69523524,17.2915921 C5.69523524,17.6779964 6.01340481,18 6.39520829,18 L9.25873439,18 C9.64053787,18 9.95870745,17.6779964 9.95870745,17.2915921 L9.95870745,0.708407877 C9.99052439,0.322003584 9.67235484,0 9.25873439,0 Z M8.49512743,2.93023256 L7.22244916,2.93023256 C6.87246264,2.93023256 6.58611003,2.64042934 6.58611003,2.28622541 C6.58611003,1.93202149 6.87246264,1.64221825 7.22244916,1.64221825 L8.49512743,1.64221825 C8.84511395,1.64221825 9.13146656,1.93202147 9.13146656,2.28622541 C9.13146656,2.64042936 8.84511395,2.93023256 8.49512743,2.93023256 Z M16.9902549,16.5509839 L14.3176305,2.60822898 C14.2221796,2.25402505 13.935827,2.02862254 13.5858405,2.02862254 L13.4585727,2.02862254 L10.6586805,2.57602863 C10.276877,2.64042934 10.0223414,3.02683364 10.0859753,3.41323793 L12.7904166,17.3881932 C12.8540505,17.7423971 13.1404031,17.9677996 13.4903896,17.9677996 L13.6176575,17.9677996 L16.4175496,17.4203936 C16.7993531,17.3237925 17.0538888,16.9373882 16.9902549,16.5509839 L16.9902549,16.5509839 Z M13.3313048,4.79785332 L12.0586266,5.05545618 L11.9313588,5.05545618 C11.6450061,5.05545618 11.3586535,4.83005367 11.2950196,4.54025045 C11.2313857,4.18604652 11.4541044,3.83184257 11.8040909,3.76744186 L13.0767692,3.509839 C13.4267557,3.44543829 13.7767422,3.67084079 13.8403762,4.02504473 C13.9040101,4.37924866 13.6812914,4.73345261 13.3313048,4.79785332 L13.3313048,4.79785332 Z" id="形状"></path>
                    </g>
                </g>
            </g>
        </g>
    </g>
</svg>