<?xml version="1.0" encoding="UTF-8"?>
<svg width="18px" height="18px" viewBox="0 0 18 18" version="1.1" xmlns="http://www.w3.org/2000/svg" xmlns:xlink="http://www.w3.org/1999/xlink">
    <title>编组 10</title>
    <g id="页面-1" stroke="none" stroke-width="1" fill="none" fill-rule="evenodd">
        <g id="主页---知识社区" transform="translate(-964.000000, -280.000000)">
            <g id="编组-19" transform="translate(904.000000, 194.000000)">
                <g id="编组-18备份" transform="translate(15.000000, 85.000000)">
                    <g id="编组-10" transform="translate(45.000000, 1.000000)">
                        <rect id="矩形备份-3" fill="#D8D8D8" opacity="0" x="0" y="0" width="18" height="18"></rect>
                        <g id="编组-3" transform="translate(2.250000, 1.406250)" stroke="#B5B8BF" stroke-linejoin="round" stroke-width="2">
                            <path d="M3.21537162,11.1896035 L3.21537162,4.13961222 L3.21537162,4.13961222 L5.03456413,2.63662536 C5.86464085,1.95082967 7.09349825,2.06779254 7.77929394,2.89786926 C8.06797664,3.24728642 8.22589552,3.6863683 8.22589552,4.13961222 L8.22589552,4.13961222 L8.22589552,4.13961222 C11.5544652,3.87729363 13.21875,5.38562551 13.21875,8.66460785 C13.21875,11.9435902 11.3184054,13.4519221 7.51771608,13.1896035 L5.21537162,13.1896035 C4.11080212,13.1896035 3.21537162,12.294173 3.21537162,11.1896035 Z" id="路径-12"></path>
                            <path d="M3.21537162,11.7896959 L1,11.7896959 C0.44771525,11.7896959 6.76353751e-17,11.3419807 0,10.7896959 L0,6.71621622 C-6.76353751e-17,6.16393147 0.44771525,5.71621622 1,5.71621622 L3.21537162,5.71621622 L3.21537162,5.71621622 L3.21537162,11.7896959 Z" id="路径-3"></path>
                        </g>
                    </g>
                </g>
            </g>
        </g>
    </g>
</svg>