<?xml version="1.0" encoding="UTF-8"?>
<svg width="11px" height="12px" viewBox="0 0 11 12" version="1.1" xmlns="http://www.w3.org/2000/svg" xmlns:xlink="http://www.w3.org/1999/xlink">
    <title>路径</title>
    <g id="页面-1" stroke="none" stroke-width="1" fill="none" fill-rule="evenodd">
        <g id="主页---常规状态备份" transform="translate(-758.000000, -152.000000)" fill="#1A73EE" fill-rule="nonzero">
            <g id="编组-30" transform="translate(307.000000, 62.000000)">
                <g id="刷新" transform="translate(451.000000, 90.000000)">
                    <path d="M10.6071112,6.22873926 C10.3901492,6.22873926 10.2142667,6.40099154 10.2142667,6.6134755 C10.2142667,7.23692367 10.08969,7.8415216 9.84395158,8.41050385 C9.36466991,9.51731518 8.46499312,10.3984228 7.33485598,10.8678122 C6.75388256,11.1084787 6.13654286,11.2304841 5.49995565,11.2304841 C4.86336844,11.2304841 4.24602874,11.1084787 3.66505532,10.8678122 C2.53491818,10.3984228 1.63524139,9.51731518 1.15595972,8.41050385 C0.910221267,7.8415216 0.785644598,7.23692367 0.785644598,6.6134755 C0.785644598,5.99002732 0.910221267,5.38542939 1.15595972,4.81644715 C1.63524139,3.70963582 2.53491818,2.82852818 3.66505532,2.35913879 C4.24602874,2.11847233 4.86336844,1.9964669 5.49995565,1.9964669 C5.74325762,1.99640478 5.98620573,2.01462807 6.22666027,2.05097627 L5.53255224,2.31592221 C5.33037197,2.39307898 5.23033857,2.61614354 5.3091214,2.81415086 C5.38790423,3.01215818 5.61566983,3.1101269 5.81785011,3.03297013 L7.50027818,2.39088887 C7.59735766,2.35383793 7.67543203,2.28053524 7.71732528,2.18710703 C7.75921854,2.09367882 7.7614989,1.9877785 7.72366468,1.89270366 L7.06800735,0.245044 C7.0170438,0.116971235 6.90018557,0.0252546831 6.76145203,0.00444308248 C6.6227185,-0.0163685182 6.48318658,0.0368866102 6.3954166,0.144147775 C6.30764662,0.25140894 6.28497293,0.396380618 6.33593649,0.524453377 L6.66367645,1.34808775 C6.28125135,1.26753038 5.89117111,1.22698193 5.5,1.22712473 C4.75768449,1.22712473 4.03736614,1.36958747 3.35904641,1.65056045 C2.04054114,2.19762919 0.991001981,3.22550606 0.432403889,4.51679765 C0.145598149,5.18111699 0,5.8865681 0,6.61356237 C0,7.34055663 0.145465105,8.04600775 0.432359545,8.71032709 C0.990957638,10.0016187 2.04049679,11.0294955 3.35900207,11.5765643 C4.0373218,11.8575373 4.75764014,12 5.49995565,12 C6.24227116,12 6.96258951,11.8575373 7.64090923,11.5765643 C8.95945061,11.0295179 10.0090253,10.0016374 10.5676405,8.71032709 C10.8545349,8.04579057 11,7.34055663 11,6.61356237 C11,6.5115014 10.958639,6.41361333 10.8849542,6.34144125 C10.8112694,6.26926917 10.7113231,6.22872774 10.6071112,6.22873926 Z" id="路径"></path>
                </g>
            </g>
        </g>
    </g>
</svg>