<?xml version="1.0" encoding="UTF-8"?>
<svg width="24px" height="24px" viewBox="0 0 24 24" version="1.1" xmlns="http://www.w3.org/2000/svg" xmlns:xlink="http://www.w3.org/1999/xlink">
    <title>编组 3</title>
    <g id="页面-1" stroke="none" stroke-width="1" fill="none" fill-rule="evenodd">
        <g id="主页---对话模式---用户直接发起对话" transform="translate(-1121.000000, -403.000000)">
            <g id="编组-9" transform="translate(305.000000, 114.000000)">
                <g id="编组-3" transform="translate(816.000000, 289.000000)">
                    <path d="M8,15.9691309 L8,8.38427015 L8,8.38427015 L11.3501959,5.4518171 C11.7657691,5.08806258 12.3975391,5.13006992 12.7612936,5.54564313 C12.92087,5.72795199 13.0088317,5.96199577 13.0088317,6.20427896 L13.0088317,8.38427015 L13.0088317,8.38427015 C16.3362772,8.1064481 18,9.70392489 18,13.1767005 C18,16.6494761 16.1002972,18.2469529 12.3008915,17.9691309 L10,17.9691309 C8.8954305,17.9691309 8,17.0737004 8,15.9691309 Z" id="路径-12" stroke="#B5B8BF" stroke-width="2" stroke-linejoin="round"></path>
                    <rect id="矩形备份" stroke="#979797" opacity="0" x="0" y="0" width="24" height="24"></rect>
                    <path d="M8,16 L6,16 C5.44771525,16 5,15.5522847 5,15 L5,10 C5,9.44771525 5.44771525,9 6,9 L8,9 L8,9 L8,16 Z" id="路径-3" stroke="#B5B8BF" stroke-width="2" stroke-linejoin="round"></path>
                </g>
            </g>
        </g>
    </g>
</svg>